HIERARCHY
ROOT Hips
{
	OFFSET 0.00000 0.00000 0.00000
	CHANNELS 6 Xposition Yposition Zposition Yrotation Zrotation Xrotation 
	JOINT Lumbar
	{
		OFFSET 0 0 0
		CHANNELS 3 Zrotation Xrotation Yrotation
		JOINT Neck
		{
			OFFSET 0.00 0.2701 0.00
			CHANNELS 3 Zrotation Xrotation Yrotation
			End Site
			{
				OFFSET 0.00 0.1379 0.00
			}
		}
		JOINT RightShoulder
		{
			OFFSET 0.0119 0.2289 0.1181
			CHANNELS 3 Zrotation Xrotation Yrotation
			JOINT RightElbow
			{
				OFFSET 0.00 -0.1475 0.00
				CHANNELS 2 Zrotation Yrotation
				JOINT RightWrist
				{
					OFFSET 0.00 -0.1605 0.00
					CHANNELS 2 Zrotation Xrotation
					End Site
					{
						OFFSET 0.0040 -0.1068 0.0006
					}
				}
			}
		}
		JOINT LeftShoulder
		{
			OFFSET 0.0119 0.2289 -0.1181
			CHANNELS 3 Zrotation Xrotation Yrotation
			JOINT LeftElbow
			{
				OFFSET 0.00 -0.1475 0.00
				CHANNELS 2 Zrotation Yrotation
				JOINT LeftWrist
				{
					OFFSET 0.00 -0.1605 0.00
					CHANNELS 2 Zrotation Xrotation
					End Site
					{
						OFFSET 0.0040 -0.1068 -0.0006
					}
				}
			}
		}
	}
	JOINT RightHip
	{
		OFFSET 0.0316 -0.0424 0.0458
		CHANNELS 3 Zrotation Xrotation Yrotation
		JOINT RightKnee
		{
			OFFSET 0.00 -0.2438 0.00
			CHANNELS 1 Zrotation
			JOINT RightAnkle
			{
				OFFSET 0.00 -0.2449 0.00
				CHANNELS 3 Zrotation Xrotation Yrotation
				End Site
				{
					OFFSET 0.1237 -0.0542 0.0051
				}
			}
		}
	}
	JOINT LeftHip
	{
		OFFSET 0.0316 -0.0424 -0.0458
		CHANNELS 3 Zrotation Xrotation Yrotation
		JOINT LeftKnee
		{
			OFFSET 0.00 -0.2438 0.00
			CHANNELS 1 Zrotation
			JOINT LeftAnkle
			{
				OFFSET 0.00 -0.2449 0.00
				CHANNELS 3 Zrotation Xrotation Yrotation
				End Site
				{
					OFFSET 0.1237 -0.0542 -0.0051
				}
			}
		}
	}
}
MOTION
Frames: 19
Frame Time: 0.02
4e-05 -0.0002 2e-05 29.82676 -31.29145 -7.51049 48.27735 2.56001 -5.72999 1.12186 0.0684 -0.12055 -33.74727 -3.18688 -36.93988 25.47627 160.73361 23.30082 11.7248 -45.58406 -6.46204 36.25416 42.27607 -172.91401 41.03669 -10.44506 45.64686 -0.60155 1.78457 -19.01732 -6.71863 -4.06619 -2.82322 49.7921 4.34484 9.29595 -25.22127 -6.56747 2.56338 1.9561
-0.00029 -0.00027 0.00027 29.75643 -31.32399 -7.48953 48.24074 2.53142 -5.7132 1.67873 0.09322 -0.12167 -31.35706 -3.91332 -33.50778 25.77942 153.49843 21.23403 10.64522 -42.61672 -4.55963 32.18739 42.34853 -165.72203 37.91409 -9.58602 45.75186 -0.67057 1.38753 -19.01939 -6.70084 -4.02956 -2.79713 49.90086 4.26049 8.9062 -25.22654 -6.56665 2.61278 1.98171
-0.00062 -0.00035 0.00052 29.68634 -31.35639 -7.46862 48.20417 2.50291 -5.69626 2.23453 0.11786 -0.12278 -28.97136 -4.63765 -30.08466 26.0822 146.28551 19.17375 9.56896 -39.65445 -2.66323 28.1331 42.42077 -158.55118 34.80045 -8.72959 45.85655 -0.73938 0.99172 -19.02145 -6.68312 -3.99305 -2.77114 50.00931 4.17638 8.51755 -25.23177 -6.56583 2.66204 2.00723
-0.00095 -0.00043 0.00077 29.61621 -31.38883 -7.44772 48.16767 2.47441 -5.67948 2.78979 0.14259 -0.1239 -26.58804 -5.3619 -26.66276 26.38455 139.07244 17.11333 8.49265 -36.69558 -0.76669 24.0789 42.49305 -151.38112 31.68732 -7.87318 45.96125 -0.80819 0.59591 -19.02352 -6.66539 -3.95654 -2.74513 50.11775 4.09229 8.12899 -25.23702 -6.56501 2.71129 2.03275
-0.00128 -0.00051 0.00102 29.54589 -31.42138 -7.42678 48.13115 2.44584 -5.66293 3.34589 0.16753 -0.12501 -24.20132 -6.08813 -23.23279 26.68691 131.83759 15.04641 7.41317 -33.73321 1.13591 20.0121 42.56544 -144.19049 28.56558 -7.0142 46.06621 -0.8772 0.19887 -19.0256 -6.64759 -3.91991 -2.71904 50.22647 4.00798 7.73938 -25.2423 -6.56419 2.76069 2.05835
-0.00161 -0.00059 0.00127 29.47634 -31.45346 -7.40595 48.09448 2.41747 -5.64519 3.90103 0.19152 -0.12613 -21.81793 -6.80837 -19.82445 26.99046 124.67146 13.00021 6.34384 -30.77135 3.01914 15.98428 42.63728 -137.06174 25.4692 -6.16318 46.17032 -0.9456 -0.19436 -19.02762 -6.63002 -3.88366 -2.69324 50.33435 3.92428 7.35277 -25.24744 -6.56339 2.80962 2.08372
-0.00194 -0.00067 0.00152 29.40514 -31.4865 -7.38489 48.05818 2.38871 -5.62984 4.45745 0.21745 -0.12724 -19.43047 -7.54004 -16.37567 27.29166 117.37414 10.91458 5.25493 -27.81176 4.93921 11.88304 42.71047 -129.81624 22.32513 -5.29708 46.27612 -1.01513 -0.59474 -19.02976 -6.61202 -3.84668 -2.66688 50.44383 3.83945 6.96055 -25.25285 -6.56255 2.85945 2.10952
-0.00227 -0.00075 0.00177 29.33577 -31.51859 -7.3641 48.02147 2.36032 -5.61233 5.01277 0.2415 -0.12836 -17.04678 -8.2609 -12.9654 27.59434 110.19925 8.86528 4.18466 -24.85003 6.82542 7.84844 42.7818 -122.6786 19.22517 -4.44491 46.38019 -1.08364 -0.98869 -19.03178 -6.59442 -3.81039 -2.64105 50.55177 3.75565 6.5735 -25.25805 -6.56175 2.90843 2.13491
-0.0026 -0.00082 0.00202 29.26741 -31.54978 -7.3434 47.98454 2.33232 -5.59195 5.56677 0.26357 -0.12947 -14.66609 -8.96991 -9.59568 27.90179 103.16523 6.8597 3.13441 -21.88386 8.67055 3.89783 42.85333 -115.66881 16.17718 -3.60929 46.48287 -1.15085 -1.37429 -19.03369 -6.57729 -3.77486 -2.61581 50.65813 3.67314 6.1926 -25.26282 -6.56098 2.95649 2.15989
-0.00293 -0.00091 0.00228 29.18956 -31.58695 -7.32148 47.94969 2.30193 -5.5874 6.12846 0.29798 -0.1306 -12.26316 -9.75122 -5.97292 28.19072 95.29406 4.60043 1.96064 -18.9376 10.75302 -0.52855 42.93115 -107.91118 12.82423 -2.67698 46.59572 -1.2254 -1.80647 -19.03634 -6.55738 -3.73472 -2.58699 50.77451 3.58328 5.7758 -25.26954 -6.55997 3.01019 2.18748
-0.00325 -0.00097 0.00251 29.13405 -31.61098 -7.30255 47.90995 2.27669 -5.54992 6.67374 0.30577 -0.1317 -9.91086 -10.3773 -2.89704 28.51292 89.20672 2.87789 1.0529 -15.95363 12.33403 -3.95561 42.99094 -101.73981 10.11879 -1.94967 46.68575 -1.28455 -2.14127 -19.03738 -6.54339 -3.70447 -2.56583 50.86915 3.5089 5.43509 -25.27247 -6.55953 3.05176 2.20942
-0.00356 -0.00094 0.00266 29.12176 -31.60261 -7.28867 47.8603 2.26472 -5.41721 7.175 0.24446 -0.13262 -7.66849 -10.59564 -1.23089 28.97515 87.90427 2.6267 0.83465 -12.83016 12.52952 -4.57078 43.04049 -99.90648 9.17861 -1.7841 46.72368 -1.30029 -2.1994 -19.03531 -6.54513 -3.7001 -2.56504 50.90842 3.47777 5.30214 -25.26293 -6.56016 3.06164 2.21686
-0.00387 -0.00088 0.00277 29.13553 -31.58015 -7.27848 47.80489 2.25812 -5.25227 7.65932 0.15571 -0.13357 -5.48351 -10.65482 -0.13239 29.46163 88.40506 2.91249 0.88913 -9.67739 12.22177 -4.19058 43.0651 -99.67818 8.89468 -1.82599 46.73682 -1.30075 -2.1617 -19.03219 -6.55286 -3.70589 -2.57206 50.925 3.46213 5.24567 -25.25031 -6.56146 3.05904 2.21843
-0.00418 -0.00083 0.00289 29.14881 -31.56206 -7.26848 47.75006 2.24957 -5.10535 8.15111 0.07691 -0.13449 -3.28962 -10.77481 1.16864 29.90535 88.16317 2.95634 0.84771 -6.559 12.15242 -4.31761 43.07494 -98.71282 8.31295 -1.77162 46.75429 -1.30899 -2.17375 -19.02764 -6.55823 -3.70788 -2.57592 50.94929 3.43879 5.155 -25.24009 -6.56281 3.06111 2.22204
-0.00449 -0.00079 0.00305 29.11304 -31.55344 -7.25013 47.70461 2.2388 -4.94442 8.64499 0.0086 -0.13529 -1.01834 -10.94275 2.70948 30.48362 87.63498 3.00156 0.69631 -3.34355 12.04719 -4.23099 43.19312 -97.74377 7.7145 -1.72002 46.80061 -1.3138 -2.15861 -19.02777 -6.56223 -3.70645 -2.57816 50.98484 3.41792 5.06258 -25.22434 -6.56272 3.0674 2.22831
-0.0048 -0.00072 0.00313 29.18707 -31.52061 -7.25068 47.63726 2.23413 -4.80466 9.12901 -0.08797 -0.13657 1.07186 -10.97359 3.60762 30.78675 88.08747 3.15975 0.82879 -0.33343 11.88976 -4.32834 43.08197 -97.21199 7.32673 -1.71931 46.78147 -1.32199 -2.17844 -19.02212 -6.57029 -3.71453 -2.5856 50.99114 3.39602 4.99136 -25.221 -6.56573 3.06192 2.22763
-0.00508 -0.0006 0.003 29.54559 -31.43447 -7.29651 47.51955 2.2431 -4.73434 9.60245 -0.25642 -0.13739 2.7283 -10.66128 2.94867 30.33099 91.19391 3.60315 1.76519 2.18673 11.78417 -5.40961 42.32495 -97.04234 7.17481 -1.73874 46.5844 -1.3452 -2.30857 -18.96586 -6.58993 -3.74616 -2.60564 50.92591 3.36343 4.96524 -25.23847 -6.57771 3.02703 2.20922
-0.00536 -0.00045 0.00282 30.01607 -31.32276 -7.36206 47.37848 2.25817 -4.68562 10.0639 -0.45225 -0.13902 4.19368 -10.21738 1.65016 29.59739 95.16909 4.12791 2.96388 4.48218 11.63384 -6.67707 41.34187 -97.32277 7.24005 -1.81176 46.32374 -1.37258 -2.47831 -18.91119 -6.61303 -3.78676 -2.63046 50.83144 3.32991 4.95714 -25.27105 -6.59268 2.98067 2.18397
-0.00564 -0.00033 0.00267 30.44327 -31.21587 -7.4229 47.2423 2.27199 -4.62528 10.52301 -0.63512 -0.1415 5.71364 -9.83586 0.59029 28.98503 98.47053 4.53904 3.98258 6.82695 11.45148 -7.69486 40.47409 -97.71695 7.33555 -1.9101 46.09329 -1.39601 -2.63725 -18.87758 -6.63343 -3.82372 -2.65317 50.74784 3.29962 4.93687 -25.30616 -6.60595 2.93961 2.16187
